<svg width="325" height="121" viewBox="0 0 325 121" fill="none" xmlns="http://www.w3.org/2000/svg">
<path d="M63.7554 1.66619L94.6967 16.6291L125.999 31.08L125.638 60.4939L125.999 89.9077L94.6967 104.359L63.7554 119.322L32.8142 104.359L1.51172 89.9077L1.87291 60.4939L1.51172 31.08L32.8142 16.6291L63.7554 1.66619Z" fill="none"/>
<path d="M64.4271 42.0052L69.0538 43.8007L73.7345 45.5348L73.6805 49.0645L73.7345 52.5942L69.0538 54.3283L64.4271 56.1238L59.8003 54.3283L55.1196 52.5942L55.1736 49.0645L55.1196 45.5348L59.8003 43.8007L64.4271 42.0052Z" fill="white"/>
<path d="M64.0615 55.8564L126.512 31.5179M63.9936 55.7056L1.58551 30.8404M64.0912 0.993874L64.0912 119.994M63.7554 1.66619L94.6967 16.6291L125.999 31.08L125.638 60.4939L125.999 89.9077L94.6967 104.359L63.7554 119.322L32.8142 104.359L1.51172 89.9077L1.87291 60.4939L1.51172 31.08L32.8142 16.6291L63.7554 1.66619ZM64.4271 42.0052L69.0538 43.8007L73.7345 45.5348L73.6805 49.0645L73.7345 52.5942L69.0538 54.3283L64.4271 56.1238L59.8003 54.3283L55.1196 52.5942L55.1736 49.0645L55.1196 45.5348L59.8003 43.8007L64.4271 42.0052Z" stroke="white" stroke-width="3"/>
<path d="M189.869 22.1939H183.025C182.761 20.7337 182.271 19.4488 181.555 18.3391C180.838 17.2294 179.961 16.2876 178.922 15.5138C177.884 14.7399 176.721 14.1558 175.434 13.7616C174.161 13.3674 172.809 13.1702 171.375 13.1702C168.787 13.1702 166.468 13.82 164.421 15.1195C162.388 16.419 160.779 18.3245 159.594 20.836C158.424 23.3474 157.839 26.4137 157.839 30.0348C157.839 33.6852 158.424 36.766 159.594 39.2775C160.779 41.7889 162.395 43.6871 164.443 44.972C166.49 46.2569 168.794 46.8994 171.353 46.8994C172.772 46.8994 174.118 46.7096 175.39 46.3299C176.677 45.9357 177.84 45.3589 178.878 44.5997C179.917 43.8404 180.794 42.9132 181.511 41.8181C182.242 40.7084 182.747 39.4381 183.025 38.0072L189.869 38.0291C189.504 40.2339 188.794 42.2634 187.741 44.1178C186.703 45.9576 185.365 47.5491 183.727 48.8925C182.103 50.2212 180.246 51.2506 178.154 51.9807C176.063 52.7107 173.781 53.0758 171.309 53.0758C167.419 53.0758 163.953 52.1559 160.911 50.3161C157.868 48.4617 155.47 45.8116 153.715 42.3657C151.974 38.9197 151.104 34.8095 151.104 30.0348C151.104 25.2456 151.982 21.1353 153.737 17.704C155.492 14.258 157.89 11.6152 160.933 9.77543C163.975 7.92106 167.434 6.99387 171.309 6.99387C173.693 6.99387 175.917 7.33701 177.979 8.02327C180.056 8.69493 181.92 9.68782 183.573 11.0019C185.226 12.3015 186.593 13.893 187.676 15.7766C188.758 17.6456 189.489 19.7847 189.869 22.1939Z" fill="white"/>
<path d="M237.01 30.0348C237.01 34.8241 236.132 38.9416 234.377 42.3876C232.622 45.8189 230.216 48.4617 227.159 50.3161C224.117 52.1559 220.658 53.0758 216.783 53.0758C212.892 53.0758 209.419 52.1559 206.362 50.3161C203.32 48.4617 200.921 45.8116 199.166 42.3657C197.411 38.9197 196.533 34.8095 196.533 30.0348C196.533 25.2456 197.411 21.1353 199.166 17.704C200.921 14.258 203.32 11.6152 206.362 9.77543C209.419 7.92106 212.892 6.99387 216.783 6.99387C220.658 6.99387 224.117 7.92106 227.159 9.77543C230.216 11.6152 232.622 14.258 234.377 17.704C236.132 21.1353 237.01 25.2456 237.01 30.0348ZM230.297 30.0348C230.297 26.3845 229.704 23.3109 228.52 20.8141C227.35 18.3026 225.741 16.4044 223.693 15.1195C221.66 13.82 219.357 13.1702 216.783 13.1702C214.194 13.1702 211.883 13.82 209.85 15.1195C207.817 16.4044 206.208 18.3026 205.023 20.8141C203.853 23.3109 203.268 26.3845 203.268 30.0348C203.268 33.6852 203.853 36.766 205.023 39.2775C206.208 41.7743 207.817 43.6725 209.85 44.972C211.883 46.2569 214.194 46.8994 216.783 46.8994C219.357 46.8994 221.66 46.2569 223.693 44.972C225.741 43.6725 227.35 41.7743 228.52 39.2775C229.704 36.766 230.297 33.6852 230.297 30.0348Z" fill="white"/>
<path d="M284.49 30.0348C284.49 34.8241 283.613 38.9416 281.858 42.3876C280.103 45.8189 277.697 48.4617 274.64 50.3161C271.598 52.1559 268.139 53.0758 264.263 53.0758C260.373 53.0758 256.899 52.1559 253.842 50.3161C250.8 48.4617 248.401 45.8116 246.646 42.3657C244.891 38.9197 244.014 34.8095 244.014 30.0348C244.014 25.2456 244.891 21.1353 246.646 17.704C248.401 14.258 250.8 11.6152 253.842 9.77543C256.899 7.92106 260.373 6.99387 264.263 6.99387C268.139 6.99387 271.598 7.92106 274.64 9.77543C277.697 11.6152 280.103 14.258 281.858 17.704C283.613 21.1353 284.49 25.2456 284.49 30.0348ZM277.777 30.0348C277.777 26.3845 277.185 23.3109 276 20.8141C274.83 18.3026 273.221 16.4044 271.174 15.1195C269.141 13.82 266.837 13.1702 264.263 13.1702C261.674 13.1702 259.363 13.82 257.33 15.1195C255.297 16.4044 253.689 18.3026 252.504 20.8141C251.334 23.3109 250.749 26.3845 250.749 30.0348C250.749 33.6852 251.334 36.766 252.504 39.2775C253.689 41.7743 255.297 43.6725 257.33 44.972C259.363 46.2569 261.674 46.8994 264.263 46.8994C266.837 46.8994 269.141 46.2569 271.174 44.972C273.221 43.6725 274.83 41.7743 276 39.2775C277.185 36.766 277.777 33.6852 277.777 30.0348Z" fill="white"/>
<path d="M292.942 52.4625V7.60713H308.957C312.453 7.60713 315.349 8.24229 317.645 9.51261C319.941 10.7829 321.66 12.5205 322.8 14.7253C323.941 16.9155 324.512 19.3831 324.512 22.1282C324.512 24.8878 323.934 27.3701 322.779 29.5749C321.638 31.7651 319.912 33.5026 317.601 34.7876C315.305 36.0579 312.416 36.693 308.935 36.693H297.922V30.9547H308.321C310.53 30.9547 312.321 30.5751 313.696 29.8158C315.071 29.0419 316.08 27.9906 316.724 26.6619C317.367 25.3332 317.689 23.8219 317.689 22.1282C317.689 20.4344 317.367 18.9305 316.724 17.6164C316.08 16.3022 315.064 15.2728 313.674 14.5282C312.299 13.7835 310.486 13.4112 308.233 13.4112H299.721V52.4625H292.942Z" fill="white"/>
<path d="M150.512 113.468V68.6129H169.993C173.416 68.6129 176.289 69.0728 178.615 69.9927C180.955 70.9126 182.717 72.2121 183.902 73.8913C185.101 75.5704 185.701 77.5489 185.701 79.8267C185.701 81.4767 185.335 82.9806 184.604 84.3385C183.888 85.6964 182.878 86.8354 181.577 87.7552C180.275 88.6605 178.754 89.2884 177.013 89.6388V90.0769C178.944 90.1499 180.699 90.639 182.279 91.5443C183.858 92.435 185.116 93.6688 186.052 95.2457C186.988 96.8081 187.456 98.6478 187.456 100.765C187.456 103.218 186.813 105.401 185.526 107.314C184.253 109.227 182.44 110.73 180.085 111.826C177.73 112.921 174.922 113.468 171.66 113.468H150.512ZM162.71 103.744H168.414C170.461 103.744 171.997 103.364 173.021 102.605C174.044 101.831 174.556 100.692 174.556 99.1881C174.556 98.1368 174.315 97.2461 173.832 96.516C173.35 95.786 172.662 95.2311 171.77 94.8515C170.893 94.4719 169.832 94.282 168.589 94.282H162.71V103.744ZM162.71 86.7477H167.712C168.779 86.7477 169.723 86.5798 170.542 86.244C171.361 85.9082 171.997 85.4263 172.45 84.7985C172.918 84.156 173.152 83.3748 173.152 82.4549C173.152 81.0678 172.655 80.0092 171.66 79.2792C170.666 78.5345 169.408 78.1621 167.887 78.1621H162.71V86.7477Z" fill="white"/>
<path d="M207.156 113.468H193.993L208.823 68.6129H225.497L240.327 113.468H227.164L217.336 80.9656H216.985L207.156 113.468ZM204.699 95.7714H229.446V104.883H204.699V95.7714Z" fill="white"/>
<path d="M270.832 82.6302C270.715 81.17 270.166 80.0311 269.186 79.2134C268.221 78.3958 266.751 77.9869 264.777 77.9869C263.519 77.9869 262.488 78.1402 261.683 78.4469C260.894 78.7389 260.309 79.1404 259.928 79.6515C259.548 80.1625 259.351 80.7466 259.336 81.4036C259.307 81.9439 259.402 82.433 259.621 82.8711C259.855 83.2945 260.221 83.6815 260.718 84.0319C261.215 84.3677 261.852 84.6744 262.627 84.9518C263.402 85.2292 264.323 85.4774 265.391 85.6964L269.077 86.4849C271.563 87.0106 273.691 87.7041 275.461 88.5656C277.231 89.4271 278.679 90.4419 279.805 91.61C280.931 92.7635 281.757 94.063 282.284 95.5086C282.825 96.9541 283.103 98.531 283.117 100.239C283.103 103.189 282.364 105.686 280.902 107.73C279.439 109.774 277.348 111.329 274.627 112.395C271.921 113.461 268.667 113.994 264.865 113.994C260.96 113.994 257.552 113.417 254.641 112.264C251.745 111.11 249.493 109.336 247.884 106.941C246.29 104.532 245.486 101.451 245.471 97.6988H257.054C257.128 99.0713 257.471 100.225 258.086 101.159C258.7 102.094 259.563 102.802 260.674 103.284C261.215 103.766 261.852 104.007 263.139 104.007C264.689 104.007 265.991 104.007 267.08 103.846 267.958 103.525C268.835 103.203 269.501 102.758 269.954 102.189C270.408 101.619 270.642 100.969 270.656 100.239C270.642 99.5531 270.415 98.9545 269.976 98.4434C269.552 97.9178 268.85 97.4505 267.87 97.0417C266.89 96.6183 265.567 96.224 263.899 95.859L259.424 94.8953C255.446 94.0338 252.308 92.5956 250.012 90.5806C247.731 88.551 246.597 85.7841 246.612 82.2797C246.597 79.4325 247.358 76.9429 248.893 74.8111C250.444 72.6647 252.586 70.9929 255.321 69.7956C258.071 68.5983 261.223 67.9996 264.777 67.9996C268.404 67.9996 271.541 68.6056 274.188 69.8175C276.836 71.0294 278.876 72.7377 280.309 74.9425C281.757 77.1328 282.489 79.6953 282.503 82.6302H270.832Z" fill="white"/>
<path d="M291.464 113.468V68.6129H323.845V78.425H303.662V86.1345H322.178V95.9466H303.662V103.656H323.758V113.468H291.464Z" fill="white"/>
</svg>
